<mxfile host="www.draw.io" modified="2020-01-16T09:46:11.014Z" agent="Mozilla/5.0 (Windows NT 10.0; Win64; x64) AppleWebKit/537.36 (KHTML, like Gecko) Chrome/68.0.3440.106 Safari/537.36" etag="68qM1EqOtkcj-TNv3XVY" version="12.5.4" type="github">
  <diagram id="C5RBs43oDa-KdzZeNtuy" name="Page-1">
    <mxGraphModel dx="918" dy="523" grid="1" gridSize="10" guides="1" tooltips="1" connect="1" arrows="1" fold="1" page="1" pageScale="1" pageWidth="827" pageHeight="1169" math="0" shadow="0">
      <root>
        <mxCell id="WIyWlLk6GJQsqaUBKTNV-0"/>
        <mxCell id="WIyWlLk6GJQsqaUBKTNV-1" parent="WIyWlLk6GJQsqaUBKTNV-0"/>
        <UserObject label="&lt;h1&gt;&lt;br&gt;&lt;/h1&gt;" treeRoot="1" id="Z2FogRYRfExg1tXKHcn_-1">
          <mxCell style="whiteSpace=wrap;html=1;align=left;treeFolding=1;treeMoving=1;container=1;recursiveResize=0;fillColor=#ffffff;strokeColor=#000000;gradientColor=none;" vertex="1" parent="WIyWlLk6GJQsqaUBKTNV-1">
            <mxGeometry x="13" y="40" width="790" height="560" as="geometry"/>
          </mxCell>
        </UserObject>
        <mxCell id="om_yYVR5NfVvwRHEm9NU-25" value="&lt;p style=&quot;margin: 0px ; margin-top: 4px ; text-align: center&quot;&gt;&lt;i&gt;&amp;lt;&amp;lt;Abstract&amp;gt;&amp;gt;&lt;/i&gt;&lt;br&gt;&lt;b&gt;Actor&lt;/b&gt;&lt;/p&gt;&lt;hr size=&quot;1&quot;&gt;&lt;p style=&quot;margin: 0px ; margin-left: 4px&quot;&gt;#actorCore()&lt;/p&gt;" style="verticalAlign=top;align=left;overflow=fill;fontSize=12;fontFamily=Helvetica;html=1;" parent="Z2FogRYRfExg1tXKHcn_-1" vertex="1">
          <mxGeometry x="270" y="80" width="190" height="70" as="geometry"/>
        </mxCell>
        <mxCell id="eE9t7E2cvp2Emfnvf7xz-1" value="Air Detector" style="swimlane;fontStyle=1;align=center;verticalAlign=top;childLayout=stackLayout;horizontal=1;startSize=26;horizontalStack=0;resizeParent=1;resizeParentMax=0;resizeLast=0;collapsible=1;marginBottom=0;fillColor=#dae8fc;strokeColor=#6c8ebf;" parent="Z2FogRYRfExg1tXKHcn_-1" vertex="1">
          <mxGeometry x="535" y="300" width="200" height="86" as="geometry"/>
        </mxCell>
        <mxCell id="JhUa_GWnJGpk6N6s8C7d-0" value="-airPurifierEnqueuer: enqueuer" style="text;strokeColor=none;fillColor=none;align=left;verticalAlign=top;spacingLeft=4;spacingRight=4;overflow=hidden;rotatable=0;points=[[0,0.5],[1,0.5]];portConstraint=eastwest;" parent="eE9t7E2cvp2Emfnvf7xz-1" vertex="1">
          <mxGeometry y="26" width="200" height="26" as="geometry"/>
        </mxCell>
        <mxCell id="eE9t7E2cvp2Emfnvf7xz-3" value="" style="line;strokeWidth=1;fillColor=none;align=left;verticalAlign=middle;spacingTop=-1;spacingLeft=3;spacingRight=3;rotatable=0;labelPosition=right;points=[];portConstraint=eastwest;" parent="eE9t7E2cvp2Emfnvf7xz-1" vertex="1">
          <mxGeometry y="52" width="200" height="8" as="geometry"/>
        </mxCell>
        <mxCell id="eE9t7E2cvp2Emfnvf7xz-4" value="#actorCore()" style="text;strokeColor=none;fillColor=none;align=left;verticalAlign=top;spacingLeft=4;spacingRight=4;overflow=hidden;rotatable=0;points=[[0,0.5],[1,0.5]];portConstraint=eastwest;" parent="eE9t7E2cvp2Emfnvf7xz-1" vertex="1">
          <mxGeometry y="60" width="200" height="26" as="geometry"/>
        </mxCell>
        <mxCell id="eE9t7E2cvp2Emfnvf7xz-5" value="" style="endArrow=block;endFill=0;endSize=12;html=1;entryX=0.5;entryY=1;entryDx=0;entryDy=0;exitX=0.5;exitY=0;exitDx=0;exitDy=0;" parent="Z2FogRYRfExg1tXKHcn_-1" source="eE9t7E2cvp2Emfnvf7xz-1" target="om_yYVR5NfVvwRHEm9NU-25" edge="1">
          <mxGeometry width="160" relative="1" as="geometry">
            <mxPoint x="130" y="700" as="sourcePoint"/>
            <mxPoint x="290" y="700" as="targetPoint"/>
          </mxGeometry>
        </mxCell>
        <mxCell id="JhUa_GWnJGpk6N6s8C7d-2" style="rounded=0;orthogonalLoop=1;jettySize=auto;html=1;exitX=0;exitY=0;exitDx=0;exitDy=0;exitPerimeter=0;entryX=0;entryY=0.5;entryDx=0;entryDy=0;" parent="Z2FogRYRfExg1tXKHcn_-1" source="JhUa_GWnJGpk6N6s8C7d-1" target="JhUa_GWnJGpk6N6s8C7d-0" edge="1">
          <mxGeometry relative="1" as="geometry"/>
        </mxCell>
        <mxCell id="JhUa_GWnJGpk6N6s8C7d-1" value="把Purifier的消息地址作为属性，可以向其发送消息" style="shape=note;whiteSpace=wrap;html=1;size=14;verticalAlign=top;align=left;spacingTop=-6;" parent="Z2FogRYRfExg1tXKHcn_-1" vertex="1">
          <mxGeometry x="600" y="480" width="100" height="70" as="geometry"/>
        </mxCell>
        <mxCell id="JhUa_GWnJGpk6N6s8C7d-3" value="New Air Purifier" style="swimlane;fontStyle=1;align=center;verticalAlign=top;childLayout=stackLayout;horizontal=1;startSize=26;horizontalStack=0;resizeParent=1;resizeParentMax=0;resizeLast=0;collapsible=1;marginBottom=0;fillColor=#d5e8d4;strokeColor=#82b366;" parent="Z2FogRYRfExg1tXKHcn_-1" vertex="1">
          <mxGeometry x="70" y="275" width="160" height="216" as="geometry"/>
        </mxCell>
        <mxCell id="JhUa_GWnJGpk6N6s8C7d-9" value="-powerEvent: user event" style="text;strokeColor=none;fillColor=none;align=left;verticalAlign=top;spacingLeft=4;spacingRight=4;overflow=hidden;rotatable=0;points=[[0,0.5],[1,0.5]];portConstraint=eastwest;" parent="JhUa_GWnJGpk6N6s8C7d-3" vertex="1">
          <mxGeometry y="26" width="160" height="26" as="geometry"/>
        </mxCell>
        <mxCell id="JhUa_GWnJGpk6N6s8C7d-5" value="" style="line;strokeWidth=1;fillColor=none;align=left;verticalAlign=middle;spacingTop=-1;spacingLeft=3;spacingRight=3;rotatable=0;labelPosition=right;points=[];portConstraint=eastwest;" parent="JhUa_GWnJGpk6N6s8C7d-3" vertex="1">
          <mxGeometry y="52" width="160" height="8" as="geometry"/>
        </mxCell>
        <mxCell id="JhUa_GWnJGpk6N6s8C7d-10" value="-getPowerEvent(): user event" style="text;strokeColor=none;fillColor=none;align=left;verticalAlign=top;spacingLeft=4;spacingRight=4;overflow=hidden;rotatable=0;points=[[0,0.5],[1,0.5]];portConstraint=eastwest;labelBackgroundColor=#ffffff;" parent="JhUa_GWnJGpk6N6s8C7d-3" vertex="1">
          <mxGeometry y="60" width="160" height="26" as="geometry"/>
        </mxCell>
        <mxCell id="JhUa_GWnJGpk6N6s8C7d-11" value="-setPowerEvent(user event)" style="text;strokeColor=none;fillColor=none;align=left;verticalAlign=top;spacingLeft=4;spacingRight=4;overflow=hidden;rotatable=0;points=[[0,0.5],[1,0.5]];portConstraint=eastwest;labelBackgroundColor=#ffffff;" parent="JhUa_GWnJGpk6N6s8C7d-3" vertex="1">
          <mxGeometry y="86" width="160" height="26" as="geometry"/>
        </mxCell>
        <mxCell id="JhUa_GWnJGpk6N6s8C7d-4" value="+powerOn()" style="text;strokeColor=none;fillColor=none;align=left;verticalAlign=top;spacingLeft=4;spacingRight=4;overflow=hidden;rotatable=0;points=[[0,0.5],[1,0.5]];portConstraint=eastwest;" parent="JhUa_GWnJGpk6N6s8C7d-3" vertex="1">
          <mxGeometry y="112" width="160" height="26" as="geometry"/>
        </mxCell>
        <mxCell id="JhUa_GWnJGpk6N6s8C7d-6" value="+powerOff()" style="text;strokeColor=none;fillColor=none;align=left;verticalAlign=top;spacingLeft=4;spacingRight=4;overflow=hidden;rotatable=0;points=[[0,0.5],[1,0.5]];portConstraint=eastwest;" parent="JhUa_GWnJGpk6N6s8C7d-3" vertex="1">
          <mxGeometry y="138" width="160" height="26" as="geometry"/>
        </mxCell>
        <mxCell id="ke-S40ZUvaBH5ExGB48V-0" value="+updatePM2.5(double)" style="text;strokeColor=none;fillColor=none;align=left;verticalAlign=top;spacingLeft=4;spacingRight=4;overflow=hidden;rotatable=0;points=[[0,0.5],[1,0.5]];portConstraint=eastwest;fontColor=#66FF66;" parent="JhUa_GWnJGpk6N6s8C7d-3" vertex="1">
          <mxGeometry y="164" width="160" height="26" as="geometry"/>
        </mxCell>
        <mxCell id="JhUa_GWnJGpk6N6s8C7d-7" value="#actorCore()" style="text;strokeColor=none;fillColor=none;align=left;verticalAlign=top;spacingLeft=4;spacingRight=4;overflow=hidden;rotatable=0;points=[[0,0.5],[1,0.5]];portConstraint=eastwest;" parent="JhUa_GWnJGpk6N6s8C7d-3" vertex="1">
          <mxGeometry y="190" width="160" height="26" as="geometry"/>
        </mxCell>
        <mxCell id="JhUa_GWnJGpk6N6s8C7d-8" value="" style="endArrow=block;endFill=0;endSize=12;html=1;exitX=0.5;exitY=0;exitDx=0;exitDy=0;entryX=0.5;entryY=1;entryDx=0;entryDy=0;" parent="Z2FogRYRfExg1tXKHcn_-1" source="JhUa_GWnJGpk6N6s8C7d-3" target="om_yYVR5NfVvwRHEm9NU-25" edge="1">
          <mxGeometry width="160" relative="1" as="geometry">
            <mxPoint x="200" y="165" as="sourcePoint"/>
            <mxPoint x="350" y="170" as="targetPoint"/>
          </mxGeometry>
        </mxCell>
        <mxCell id="ke-S40ZUvaBH5ExGB48V-2" value="&lt;p style=&quot;margin: 0px ; margin-top: 4px ; text-align: center&quot;&gt;&lt;i&gt;&amp;lt;&amp;lt;Abstract&amp;gt;&amp;gt;&lt;/i&gt;&lt;br&gt;&lt;b&gt;Message&lt;/b&gt;&lt;/p&gt;&lt;hr size=&quot;1&quot;&gt;&lt;p style=&quot;margin: 0px ; margin-left: 4px&quot;&gt;#do()&lt;/p&gt;" style="verticalAlign=top;align=left;overflow=fill;fontSize=12;fontFamily=Helvetica;html=1;" parent="Z2FogRYRfExg1tXKHcn_-1" vertex="1">
          <mxGeometry x="480" y="80" width="190" height="70" as="geometry"/>
        </mxCell>
        <mxCell id="ke-S40ZUvaBH5ExGB48V-7" value="Update PM2.5 Msg" style="swimlane;fontStyle=1;align=center;verticalAlign=top;childLayout=stackLayout;horizontal=1;startSize=26;horizontalStack=0;resizeParent=1;resizeParentMax=0;resizeLast=0;collapsible=1;marginBottom=0;" parent="Z2FogRYRfExg1tXKHcn_-1" vertex="1">
          <mxGeometry x="280" y="305" width="160" height="86" as="geometry"/>
        </mxCell>
        <mxCell id="ke-S40ZUvaBH5ExGB48V-9" value="" style="line;strokeWidth=1;fillColor=none;align=left;verticalAlign=middle;spacingTop=-1;spacingLeft=3;spacingRight=3;rotatable=0;labelPosition=right;points=[];portConstraint=eastwest;" parent="ke-S40ZUvaBH5ExGB48V-7" vertex="1">
          <mxGeometry y="26" width="160" height="8" as="geometry"/>
        </mxCell>
        <mxCell id="ke-S40ZUvaBH5ExGB48V-8" value="+sendUpdatePm2.5(double)" style="text;strokeColor=none;fillColor=none;align=left;verticalAlign=top;spacingLeft=4;spacingRight=4;overflow=hidden;rotatable=0;points=[[0,0.5],[1,0.5]];portConstraint=eastwest;" parent="ke-S40ZUvaBH5ExGB48V-7" vertex="1">
          <mxGeometry y="34" width="160" height="26" as="geometry"/>
        </mxCell>
        <mxCell id="ke-S40ZUvaBH5ExGB48V-10" value="+do()" style="text;strokeColor=none;fillColor=none;align=left;verticalAlign=top;spacingLeft=4;spacingRight=4;overflow=hidden;rotatable=0;points=[[0,0.5],[1,0.5]];portConstraint=eastwest;" parent="ke-S40ZUvaBH5ExGB48V-7" vertex="1">
          <mxGeometry y="60" width="160" height="26" as="geometry"/>
        </mxCell>
        <mxCell id="ke-S40ZUvaBH5ExGB48V-11" value="" style="endArrow=block;endFill=0;endSize=12;html=1;entryX=0.5;entryY=1;entryDx=0;entryDy=0;" parent="Z2FogRYRfExg1tXKHcn_-1" source="ke-S40ZUvaBH5ExGB48V-7" target="ke-S40ZUvaBH5ExGB48V-2" edge="1">
          <mxGeometry width="160" relative="1" as="geometry">
            <mxPoint x="-140" y="258.25" as="sourcePoint"/>
            <mxPoint x="-25" y="171.75" as="targetPoint"/>
          </mxGeometry>
        </mxCell>
        <mxCell id="ke-S40ZUvaBH5ExGB48V-13" value="Use" style="endArrow=open;endSize=12;dashed=1;html=1;" parent="Z2FogRYRfExg1tXKHcn_-1" source="eE9t7E2cvp2Emfnvf7xz-4" target="ke-S40ZUvaBH5ExGB48V-8" edge="1">
          <mxGeometry width="160" relative="1" as="geometry">
            <mxPoint x="53" y="180" as="sourcePoint"/>
            <mxPoint x="-40" y="294" as="targetPoint"/>
          </mxGeometry>
        </mxCell>
        <mxCell id="ke-S40ZUvaBH5ExGB48V-14" value="Use" style="endArrow=open;endSize=12;dashed=1;html=1;" parent="Z2FogRYRfExg1tXKHcn_-1" source="ke-S40ZUvaBH5ExGB48V-10" target="ke-S40ZUvaBH5ExGB48V-0" edge="1">
          <mxGeometry width="160" relative="1" as="geometry">
            <mxPoint x="80" y="409" as="sourcePoint"/>
            <mxPoint x="-61.68478260869574" y="330" as="targetPoint"/>
          </mxGeometry>
        </mxCell>
        <mxCell id="ke-S40ZUvaBH5ExGB48V-16" style="rounded=0;orthogonalLoop=1;jettySize=auto;html=1;exitX=0;exitY=0;exitDx=100;exitDy=42;exitPerimeter=0;entryX=0;entryY=0.5;entryDx=0;entryDy=0;" parent="Z2FogRYRfExg1tXKHcn_-1" source="ke-S40ZUvaBH5ExGB48V-15" target="eE9t7E2cvp2Emfnvf7xz-4" edge="1">
          <mxGeometry relative="1" as="geometry"/>
        </mxCell>
        <mxCell id="ke-S40ZUvaBH5ExGB48V-15" value="由于这里的存在，修改不可避免&lt;br&gt;&lt;b&gt;不同的操作者的消息不一样&lt;br&gt;&lt;br&gt;高耦合&lt;br&gt;&lt;/b&gt;" style="shape=note;whiteSpace=wrap;html=1;size=14;verticalAlign=top;align=left;spacingTop=-6;" parent="Z2FogRYRfExg1tXKHcn_-1" vertex="1">
          <mxGeometry x="390" y="430" width="100" height="90" as="geometry"/>
        </mxCell>
        <UserObject label="&lt;h1&gt;&lt;br&gt;&lt;/h1&gt;" treeRoot="1" id="Z2FogRYRfExg1tXKHcn_-2">
          <mxCell style="whiteSpace=wrap;html=1;align=left;treeFolding=1;treeMoving=1;container=1;recursiveResize=0;fillColor=#ffffff;strokeColor=#000000;gradientColor=none;" vertex="1" parent="WIyWlLk6GJQsqaUBKTNV-1">
            <mxGeometry x="17.5" y="620" width="790" height="560" as="geometry"/>
          </mxCell>
        </UserObject>
        <mxCell id="Z2FogRYRfExg1tXKHcn_-3" value="&lt;p style=&quot;margin: 0px ; margin-top: 4px ; text-align: center&quot;&gt;&lt;i&gt;&amp;lt;&amp;lt;Abstract&amp;gt;&amp;gt;&lt;/i&gt;&lt;br&gt;&lt;b&gt;Actor&lt;/b&gt;&lt;/p&gt;&lt;hr size=&quot;1&quot;&gt;&lt;p style=&quot;margin: 0px ; margin-left: 4px&quot;&gt;#actorCore()&lt;/p&gt;" style="verticalAlign=top;align=left;overflow=fill;fontSize=12;fontFamily=Helvetica;html=1;fillColor=#60a917;strokeColor=#2D7600;fontColor=#ffffff;" vertex="1" parent="Z2FogRYRfExg1tXKHcn_-2">
          <mxGeometry x="55" y="80" width="190" height="70" as="geometry"/>
        </mxCell>
        <mxCell id="Z2FogRYRfExg1tXKHcn_-4" value="Air Detector" style="swimlane;fontStyle=1;align=center;verticalAlign=top;childLayout=stackLayout;horizontal=1;startSize=26;horizontalStack=0;resizeParent=1;resizeParentMax=0;resizeLast=0;collapsible=1;marginBottom=0;fillColor=#dae8fc;strokeColor=#6c8ebf;" vertex="1" parent="Z2FogRYRfExg1tXKHcn_-2">
          <mxGeometry x="535" y="300" width="215" height="164" as="geometry"/>
        </mxCell>
        <mxCell id="Z2FogRYRfExg1tXKHcn_-5" value="-airPurifierEnqueuer: enqueuer" style="text;strokeColor=none;fillColor=none;align=left;verticalAlign=top;spacingLeft=4;spacingRight=4;overflow=hidden;rotatable=0;points=[[0,0.5],[1,0.5]];portConstraint=eastwest;" vertex="1" parent="Z2FogRYRfExg1tXKHcn_-4">
          <mxGeometry y="26" width="215" height="26" as="geometry"/>
        </mxCell>
        <mxCell id="Z2FogRYRfExg1tXKHcn_-43" value="-airPurifierEnqueuer: enqueuer" style="text;strokeColor=none;fillColor=none;align=left;verticalAlign=top;spacingLeft=4;spacingRight=4;overflow=hidden;rotatable=0;points=[[0,0.5],[1,0.5]];portConstraint=eastwest;" vertex="1" parent="Z2FogRYRfExg1tXKHcn_-4">
          <mxGeometry y="52" width="215" height="26" as="geometry"/>
        </mxCell>
        <mxCell id="Z2FogRYRfExg1tXKHcn_-6" value="" style="line;strokeWidth=1;fillColor=none;align=left;verticalAlign=middle;spacingTop=-1;spacingLeft=3;spacingRight=3;rotatable=0;labelPosition=right;points=[];portConstraint=eastwest;" vertex="1" parent="Z2FogRYRfExg1tXKHcn_-4">
          <mxGeometry y="78" width="215" height="8" as="geometry"/>
        </mxCell>
        <mxCell id="Z2FogRYRfExg1tXKHcn_-38" value="-getAirPurifierEnqueuer(): enqueuer" style="text;strokeColor=none;fillColor=none;align=left;verticalAlign=top;spacingLeft=4;spacingRight=4;overflow=hidden;rotatable=0;points=[[0,0.5],[1,0.5]];portConstraint=eastwest;fontColor=#33FF33;" vertex="1" parent="Z2FogRYRfExg1tXKHcn_-4">
          <mxGeometry y="86" width="215" height="26" as="geometry"/>
        </mxCell>
        <mxCell id="Z2FogRYRfExg1tXKHcn_-39" value="+setAirPurifierEnqueuer(enqueuer)" style="text;strokeColor=none;fillColor=none;align=left;verticalAlign=top;spacingLeft=4;spacingRight=4;overflow=hidden;rotatable=0;points=[[0,0.5],[1,0.5]];portConstraint=eastwest;fontColor=#33FF33;" vertex="1" parent="Z2FogRYRfExg1tXKHcn_-4">
          <mxGeometry y="112" width="215" height="26" as="geometry"/>
        </mxCell>
        <mxCell id="Z2FogRYRfExg1tXKHcn_-7" value="#actorCore()" style="text;strokeColor=none;fillColor=none;align=left;verticalAlign=top;spacingLeft=4;spacingRight=4;overflow=hidden;rotatable=0;points=[[0,0.5],[1,0.5]];portConstraint=eastwest;" vertex="1" parent="Z2FogRYRfExg1tXKHcn_-4">
          <mxGeometry y="138" width="215" height="26" as="geometry"/>
        </mxCell>
        <mxCell id="Z2FogRYRfExg1tXKHcn_-9" style="rounded=0;orthogonalLoop=1;jettySize=auto;html=1;exitX=0;exitY=0;exitDx=0;exitDy=0;exitPerimeter=0;entryX=0;entryY=0.5;entryDx=0;entryDy=0;" edge="1" parent="Z2FogRYRfExg1tXKHcn_-2" source="Z2FogRYRfExg1tXKHcn_-10" target="Z2FogRYRfExg1tXKHcn_-5">
          <mxGeometry relative="1" as="geometry"/>
        </mxCell>
        <mxCell id="Z2FogRYRfExg1tXKHcn_-10" value="把Purifier的消息地址作为属性，可以向其发送消息" style="shape=note;whiteSpace=wrap;html=1;size=14;verticalAlign=top;align=left;spacingTop=-6;" vertex="1" parent="Z2FogRYRfExg1tXKHcn_-2">
          <mxGeometry x="435" y="470" width="100" height="70" as="geometry"/>
        </mxCell>
        <mxCell id="Z2FogRYRfExg1tXKHcn_-11" value="New Air Purifier" style="swimlane;fontStyle=1;align=center;verticalAlign=top;childLayout=stackLayout;horizontal=1;startSize=26;horizontalStack=0;resizeParent=1;resizeParentMax=0;resizeLast=0;collapsible=1;marginBottom=0;fillColor=#d5e8d4;strokeColor=#82b366;" vertex="1" parent="Z2FogRYRfExg1tXKHcn_-2">
          <mxGeometry x="70" y="275" width="160" height="216" as="geometry"/>
        </mxCell>
        <mxCell id="Z2FogRYRfExg1tXKHcn_-12" value="-powerEvent: user event" style="text;strokeColor=none;fillColor=none;align=left;verticalAlign=top;spacingLeft=4;spacingRight=4;overflow=hidden;rotatable=0;points=[[0,0.5],[1,0.5]];portConstraint=eastwest;" vertex="1" parent="Z2FogRYRfExg1tXKHcn_-11">
          <mxGeometry y="26" width="160" height="26" as="geometry"/>
        </mxCell>
        <mxCell id="Z2FogRYRfExg1tXKHcn_-13" value="" style="line;strokeWidth=1;fillColor=none;align=left;verticalAlign=middle;spacingTop=-1;spacingLeft=3;spacingRight=3;rotatable=0;labelPosition=right;points=[];portConstraint=eastwest;" vertex="1" parent="Z2FogRYRfExg1tXKHcn_-11">
          <mxGeometry y="52" width="160" height="8" as="geometry"/>
        </mxCell>
        <mxCell id="Z2FogRYRfExg1tXKHcn_-14" value="-getPowerEvent(): user event" style="text;strokeColor=none;fillColor=none;align=left;verticalAlign=top;spacingLeft=4;spacingRight=4;overflow=hidden;rotatable=0;points=[[0,0.5],[1,0.5]];portConstraint=eastwest;labelBackgroundColor=#ffffff;" vertex="1" parent="Z2FogRYRfExg1tXKHcn_-11">
          <mxGeometry y="60" width="160" height="26" as="geometry"/>
        </mxCell>
        <mxCell id="Z2FogRYRfExg1tXKHcn_-15" value="-setPowerEvent(user event)" style="text;strokeColor=none;fillColor=none;align=left;verticalAlign=top;spacingLeft=4;spacingRight=4;overflow=hidden;rotatable=0;points=[[0,0.5],[1,0.5]];portConstraint=eastwest;labelBackgroundColor=#ffffff;" vertex="1" parent="Z2FogRYRfExg1tXKHcn_-11">
          <mxGeometry y="86" width="160" height="26" as="geometry"/>
        </mxCell>
        <mxCell id="Z2FogRYRfExg1tXKHcn_-16" value="+powerOn()" style="text;strokeColor=none;fillColor=none;align=left;verticalAlign=top;spacingLeft=4;spacingRight=4;overflow=hidden;rotatable=0;points=[[0,0.5],[1,0.5]];portConstraint=eastwest;" vertex="1" parent="Z2FogRYRfExg1tXKHcn_-11">
          <mxGeometry y="112" width="160" height="26" as="geometry"/>
        </mxCell>
        <mxCell id="Z2FogRYRfExg1tXKHcn_-17" value="+powerOff()" style="text;strokeColor=none;fillColor=none;align=left;verticalAlign=top;spacingLeft=4;spacingRight=4;overflow=hidden;rotatable=0;points=[[0,0.5],[1,0.5]];portConstraint=eastwest;" vertex="1" parent="Z2FogRYRfExg1tXKHcn_-11">
          <mxGeometry y="138" width="160" height="26" as="geometry"/>
        </mxCell>
        <mxCell id="Z2FogRYRfExg1tXKHcn_-18" value="+updatePM2.5(double)" style="text;strokeColor=none;fillColor=none;align=left;verticalAlign=top;spacingLeft=4;spacingRight=4;overflow=hidden;rotatable=0;points=[[0,0.5],[1,0.5]];portConstraint=eastwest;fontColor=#66FF66;" vertex="1" parent="Z2FogRYRfExg1tXKHcn_-11">
          <mxGeometry y="164" width="160" height="26" as="geometry"/>
        </mxCell>
        <mxCell id="Z2FogRYRfExg1tXKHcn_-19" value="#actorCore()" style="text;strokeColor=none;fillColor=none;align=left;verticalAlign=top;spacingLeft=4;spacingRight=4;overflow=hidden;rotatable=0;points=[[0,0.5],[1,0.5]];portConstraint=eastwest;" vertex="1" parent="Z2FogRYRfExg1tXKHcn_-11">
          <mxGeometry y="190" width="160" height="26" as="geometry"/>
        </mxCell>
        <mxCell id="Z2FogRYRfExg1tXKHcn_-20" value="" style="endArrow=block;endFill=0;endSize=12;html=1;exitX=0.5;exitY=0;exitDx=0;exitDy=0;entryX=0.5;entryY=1;entryDx=0;entryDy=0;" edge="1" parent="Z2FogRYRfExg1tXKHcn_-2" source="Z2FogRYRfExg1tXKHcn_-11" target="Z2FogRYRfExg1tXKHcn_-3">
          <mxGeometry width="160" relative="1" as="geometry">
            <mxPoint x="200" y="165" as="sourcePoint"/>
            <mxPoint x="350" y="170" as="targetPoint"/>
          </mxGeometry>
        </mxCell>
        <mxCell id="Z2FogRYRfExg1tXKHcn_-21" value="&lt;p style=&quot;margin: 0px ; margin-top: 4px ; text-align: center&quot;&gt;&lt;i&gt;&amp;lt;&amp;lt;Abstract&amp;gt;&amp;gt;&lt;/i&gt;&lt;br&gt;&lt;b&gt;Message&lt;/b&gt;&lt;/p&gt;&lt;hr size=&quot;1&quot;&gt;&lt;p style=&quot;margin: 0px ; margin-left: 4px&quot;&gt;#do()&lt;/p&gt;" style="verticalAlign=top;align=left;overflow=fill;fontSize=12;fontFamily=Helvetica;html=1;" vertex="1" parent="Z2FogRYRfExg1tXKHcn_-2">
          <mxGeometry x="265" y="80" width="190" height="70" as="geometry"/>
        </mxCell>
        <mxCell id="Z2FogRYRfExg1tXKHcn_-22" value="Update PM2.5 Msg" style="swimlane;fontStyle=1;align=center;verticalAlign=top;childLayout=stackLayout;horizontal=1;startSize=26;horizontalStack=0;resizeParent=1;resizeParentMax=0;resizeLast=0;collapsible=1;marginBottom=0;" vertex="1" parent="Z2FogRYRfExg1tXKHcn_-2">
          <mxGeometry x="280" y="356" width="160" height="60" as="geometry"/>
        </mxCell>
        <mxCell id="Z2FogRYRfExg1tXKHcn_-23" value="" style="line;strokeWidth=1;fillColor=none;align=left;verticalAlign=middle;spacingTop=-1;spacingLeft=3;spacingRight=3;rotatable=0;labelPosition=right;points=[];portConstraint=eastwest;" vertex="1" parent="Z2FogRYRfExg1tXKHcn_-22">
          <mxGeometry y="26" width="160" height="8" as="geometry"/>
        </mxCell>
        <mxCell id="Z2FogRYRfExg1tXKHcn_-25" value="+do()" style="text;strokeColor=none;fillColor=none;align=left;verticalAlign=top;spacingLeft=4;spacingRight=4;overflow=hidden;rotatable=0;points=[[0,0.5],[1,0.5]];portConstraint=eastwest;" vertex="1" parent="Z2FogRYRfExg1tXKHcn_-22">
          <mxGeometry y="34" width="160" height="26" as="geometry"/>
        </mxCell>
        <mxCell id="Z2FogRYRfExg1tXKHcn_-28" value="Use" style="endArrow=open;endSize=12;dashed=1;html=1;" edge="1" parent="Z2FogRYRfExg1tXKHcn_-2" source="Z2FogRYRfExg1tXKHcn_-25" target="Z2FogRYRfExg1tXKHcn_-18">
          <mxGeometry width="160" relative="1" as="geometry">
            <mxPoint x="80" y="409" as="sourcePoint"/>
            <mxPoint x="-61.68478260869574" y="330" as="targetPoint"/>
          </mxGeometry>
        </mxCell>
        <mxCell id="Z2FogRYRfExg1tXKHcn_-31" value="&lt;p style=&quot;margin: 0px ; margin-top: 4px ; text-align: center&quot;&gt;&lt;i&gt;&amp;lt;&amp;lt;Abstract&amp;gt;&amp;gt;&lt;/i&gt;&lt;br&gt;&lt;b&gt;Actor&lt;/b&gt;&lt;/p&gt;&lt;hr size=&quot;1&quot;&gt;&lt;p style=&quot;margin: 0px ; margin-left: 4px&quot;&gt;#actorCore()&lt;/p&gt;" style="verticalAlign=top;align=left;overflow=fill;fontSize=12;fontFamily=Helvetica;html=1;fillColor=#60a917;strokeColor=#2D7600;fontColor=#ffffff;" vertex="1" parent="Z2FogRYRfExg1tXKHcn_-2">
          <mxGeometry x="547.5" y="80" width="190" height="70" as="geometry"/>
        </mxCell>
        <mxCell id="Z2FogRYRfExg1tXKHcn_-8" value="" style="endArrow=block;endFill=0;endSize=12;html=1;exitX=0.5;exitY=0;exitDx=0;exitDy=0;entryX=0.5;entryY=1;entryDx=0;entryDy=0;" edge="1" parent="Z2FogRYRfExg1tXKHcn_-2" source="Z2FogRYRfExg1tXKHcn_-4" target="Z2FogRYRfExg1tXKHcn_-31">
          <mxGeometry width="160" relative="1" as="geometry">
            <mxPoint x="130" y="700" as="sourcePoint"/>
            <mxPoint x="290" y="700" as="targetPoint"/>
          </mxGeometry>
        </mxCell>
        <mxCell id="Z2FogRYRfExg1tXKHcn_-41" value="依赖倒置原则" style="shape=note;whiteSpace=wrap;html=1;size=14;verticalAlign=top;align=left;spacingTop=-6;strokeColor=#000000;fillColor=#ffffff;gradientColor=none;fontColor=#33FF33;" vertex="1" parent="Z2FogRYRfExg1tXKHcn_-2">
          <mxGeometry x="512.5" y="190" width="100" height="70" as="geometry"/>
        </mxCell>
        <mxCell id="Z2FogRYRfExg1tXKHcn_-32" value="Abstract Update PM2.5 Msg" style="swimlane;fontStyle=1;align=center;verticalAlign=top;childLayout=stackLayout;horizontal=1;startSize=26;horizontalStack=0;resizeParent=1;resizeParentMax=0;resizeLast=0;collapsible=1;marginBottom=0;" vertex="1" parent="WIyWlLk6GJQsqaUBKTNV-1">
          <mxGeometry x="281.25" y="820" width="192.5" height="112" as="geometry"/>
        </mxCell>
        <mxCell id="Z2FogRYRfExg1tXKHcn_-40" value="-PM2.5: double" style="text;strokeColor=none;fillColor=none;align=left;verticalAlign=top;spacingLeft=4;spacingRight=4;overflow=hidden;rotatable=0;points=[[0,0.5],[1,0.5]];portConstraint=eastwest;fontColor=#33FF33;" vertex="1" parent="Z2FogRYRfExg1tXKHcn_-32">
          <mxGeometry y="26" width="192.5" height="26" as="geometry"/>
        </mxCell>
        <mxCell id="Z2FogRYRfExg1tXKHcn_-33" value="" style="line;strokeWidth=1;fillColor=none;align=left;verticalAlign=middle;spacingTop=-1;spacingLeft=3;spacingRight=3;rotatable=0;labelPosition=right;points=[];portConstraint=eastwest;" vertex="1" parent="Z2FogRYRfExg1tXKHcn_-32">
          <mxGeometry y="52" width="192.5" height="8" as="geometry"/>
        </mxCell>
        <mxCell id="Z2FogRYRfExg1tXKHcn_-34" value="#gerPM2.5(): double" style="text;strokeColor=none;fillColor=none;align=left;verticalAlign=top;spacingLeft=4;spacingRight=4;overflow=hidden;rotatable=0;points=[[0,0.5],[1,0.5]];portConstraint=eastwest;" vertex="1" parent="Z2FogRYRfExg1tXKHcn_-32">
          <mxGeometry y="60" width="192.5" height="26" as="geometry"/>
        </mxCell>
        <mxCell id="Z2FogRYRfExg1tXKHcn_-35" value="+setPM2.5(double)" style="text;strokeColor=none;fillColor=none;align=left;verticalAlign=top;spacingLeft=4;spacingRight=4;overflow=hidden;rotatable=0;points=[[0,0.5],[1,0.5]];portConstraint=eastwest;" vertex="1" parent="Z2FogRYRfExg1tXKHcn_-32">
          <mxGeometry y="86" width="192.5" height="26" as="geometry"/>
        </mxCell>
        <mxCell id="Z2FogRYRfExg1tXKHcn_-26" value="" style="endArrow=block;endFill=0;endSize=12;html=1;entryX=0.5;entryY=1;entryDx=0;entryDy=0;exitX=0.5;exitY=0;exitDx=0;exitDy=0;" edge="1" parent="WIyWlLk6GJQsqaUBKTNV-1" source="Z2FogRYRfExg1tXKHcn_-32" target="Z2FogRYRfExg1tXKHcn_-21">
          <mxGeometry width="160" relative="1" as="geometry">
            <mxPoint x="-122.5" y="878.25" as="sourcePoint"/>
            <mxPoint x="-7.5" y="791.75" as="targetPoint"/>
          </mxGeometry>
        </mxCell>
        <mxCell id="Z2FogRYRfExg1tXKHcn_-37" value="" style="endArrow=block;endFill=0;endSize=12;html=1;exitX=0.5;exitY=0;exitDx=0;exitDy=0;" edge="1" parent="WIyWlLk6GJQsqaUBKTNV-1" source="Z2FogRYRfExg1tXKHcn_-22" target="Z2FogRYRfExg1tXKHcn_-35">
          <mxGeometry width="160" relative="1" as="geometry">
            <mxPoint x="377.5" y="820" as="sourcePoint"/>
            <mxPoint x="490" y="1210" as="targetPoint"/>
          </mxGeometry>
        </mxCell>
        <mxCell id="Z2FogRYRfExg1tXKHcn_-27" value="Use" style="endArrow=open;endSize=12;dashed=1;html=1;entryX=1;entryY=0.25;entryDx=0;entryDy=0;" edge="1" parent="WIyWlLk6GJQsqaUBKTNV-1" source="Z2FogRYRfExg1tXKHcn_-7" target="Z2FogRYRfExg1tXKHcn_-32">
          <mxGeometry width="160" relative="1" as="geometry">
            <mxPoint x="70.5" y="800" as="sourcePoint"/>
            <mxPoint x="-22.5" y="914" as="targetPoint"/>
          </mxGeometry>
        </mxCell>
        <mxCell id="Z2FogRYRfExg1tXKHcn_-42" style="edgeStyle=none;rounded=0;orthogonalLoop=1;jettySize=auto;html=1;exitX=0;exitY=1;exitDx=0;exitDy=0;exitPerimeter=0;fontColor=#33FF33;" edge="1" parent="WIyWlLk6GJQsqaUBKTNV-1" source="Z2FogRYRfExg1tXKHcn_-41">
          <mxGeometry relative="1" as="geometry">
            <mxPoint x="479.9999999999998" y="859.9999999999998" as="targetPoint"/>
          </mxGeometry>
        </mxCell>
      </root>
    </mxGraphModel>
  </diagram>
</mxfile>
